<?xml version="1.0" standalone="no"?><!-- Generator: Gravit.io --><svg xmlns="http://www.w3.org/2000/svg" xmlns:xlink="http://www.w3.org/1999/xlink" style="isolation:isolate" viewBox="0 0 503 114" width="503" height="114"><defs><clipPath id="_clipPath_gcCmXD6PBQVTTgai6pvtrKi77kHNCPvR"><rect width="503" height="114"/></clipPath></defs><g clip-path="url(#_clipPath_gcCmXD6PBQVTTgai6pvtrKi77kHNCPvR)"><g id="Mark-with-Circle-Shape-+-Logotype-Copy-2"><g id="badge-full"><linearGradient id="_lgradient_2" x1="0%" y1="50%" x2="6.123233995736766e-15%" y2="150%"><stop offset="0%" stop-opacity="1" style="stop-color:rgb(255,102,51)"/><stop offset="98.60291769999996%" stop-opacity="1" style="stop-color:rgb(255,14,131)"/></linearGradient><path d=" M 0.452 56.959 C 0.452 25.789 25.913 0.483 57.272 0.483 C 88.632 0.483 114.093 25.789 114.093 56.959 C 114.093 88.129 88.632 113.435 57.272 113.435 C 25.913 113.435 0.452 88.129 0.452 56.959 Z " fill="url(#_lgradient_2)"/><path d=" M 78.392 30.581 L 58.12 45.692 C 58.062 45.735 57.946 45.822 57.946 45.822 L 37.308 30.713 C 36.171 29.861 34.847 29.477 33.552 29.477 C 30.544 29.477 27.694 31.544 27.694 34.591 L 27.694 46.049 L 27.689 80.109 C 27.689 83.156 30.54 85.223 33.548 85.223 C 34.843 85.223 36.166 84.84 37.304 83.987 L 57.946 68.746 C 68.217 76.445 78.388 83.987 78.388 83.987 C 79.525 84.839 80.849 85.223 82.144 85.223 C 85.152 85.223 88.202 83.156 88.202 80.109 L 88.202 46.049 L 88.202 34.36 C 88.202 31.313 85.156 29.345 82.148 29.345 C 80.853 29.345 79.53 29.728 78.392 30.581 Z " fill-rule="evenodd" fill="rgb(255,255,255)" fill-opacity="0.699999988"/><path d=" M 42.109 56.864 L 57.254 68.304 L 72.303 56.861 L 57.254 45.379 L 42.109 56.864 Z " fill-rule="evenodd" fill="rgb(255,255,255)" fill-opacity="0.599999964"/><path d=" M 27.689 46.983 L 27.689 69.579 L 42.793 58.281 L 27.689 46.983" fill-rule="evenodd" fill="rgb(255,255,255)" fill-opacity="0.599999964"/><path d=" M 72.55 56.861 L 87.758 68.304 L 87.758 45.379 L 72.55 56.861" fill-rule="evenodd" fill="rgb(255,255,255)" fill-opacity="0.599999964"/><path d=" M 78.302 30.979 L 58.131 46.023 L 73.179 57.504 L 88.387 46.023 L 88.387 34.561 C 88.387 30.206 82.624 27.397 78.302 30.979 Z " fill-rule="evenodd" fill="rgb(255,255,255)"/><path d=" M 37.317 30.58 C 33.532 27.748 27.689 30.099 27.689 34.455 L 27.689 45.964 L 42.789 57.262 L 57.934 45.778 L 37.317 30.58 Z " fill-rule="evenodd" fill="rgb(255,255,255)"/><path d=" M 160.161 78.923 L 160.161 97.529 L 167.569 97.529 L 167.569 79.013 C 167.569 74.013 170.313 70.65 174.917 70.65 C 180.039 70.65 182.051 74.135 182.051 78.832 L 182.051 97.529 L 189.49 97.529 L 189.49 77.074 C 189.49 69.559 185.801 63.65 177.326 63.65 C 172.234 63.65 168.972 65.528 165.74 69.074 C 163.85 65.771 160.527 63.65 155.466 63.65 C 152.813 63.65 148.697 64.619 145.496 68.862 L 145.496 64.407 L 138.24 64.407 L 138.24 97.529 L 145.679 97.529 L 145.679 79.074 C 145.679 74.074 148.423 70.65 153.027 70.65 C 158.149 70.65 160.161 74.226 160.161 78.923 L 160.161 78.923 Z  M 204.264 82.953 L 204.264 64.407 L 196.825 64.407 L 196.825 84.771 C 196.825 92.286 200.971 98.226 209.325 98.226 C 211.947 98.226 216.306 97.347 219.508 93.074 L 219.508 97.529 L 226.764 97.529 L 226.764 64.407 L 219.325 64.407 L 219.325 82.832 C 219.325 87.832 216.337 91.226 211.611 91.226 C 206.489 91.226 204.264 87.65 204.264 82.953 L 204.264 82.953 Z  M 245.714 98.105 C 254.007 98.105 257.879 92.892 257.879 87.771 C 257.879 83.044 254.525 79.104 248.428 77.801 L 243.854 76.832 C 241.995 76.438 240.501 75.347 240.501 73.407 C 240.501 71.165 242.726 69.65 245.074 69.65 C 249.007 69.65 250.623 72.135 251.11 74.286 L 257.391 72.529 C 256.812 69.347 253.824 63.68 245.074 63.68 C 238.275 63.68 233.305 68.559 233.305 74.044 C 233.305 78.377 236.049 82.135 242.116 83.559 L 246.385 84.559 C 249.19 85.226 250.348 86.408 250.348 88.195 C 250.348 90.498 248.671 92.074 245.592 92.074 C 241.781 92.074 239.525 89.62 238.915 86.801 L 232.543 88.468 C 232.97 92.165 236.659 98.105 245.714 98.105 L 245.714 98.105 Z  M 262.713 53.65 C 262.713 50.953 264.908 48.74 267.591 48.74 C 270.305 48.74 272.5 50.953 272.5 53.65 C 272.5 56.347 270.305 58.498 267.591 58.498 C 264.908 58.498 262.713 56.347 262.713 53.65 L 262.713 53.65 Z  M 263.902 97.529 L 263.902 64.407 L 271.341 64.407 L 271.341 97.529 L 263.902 97.529 Z  M 283.797 97.529 L 292.182 85.983 L 300.596 97.529 L 309.133 97.529 L 296.511 80.65 L 308.737 64.407 L 300.352 64.407 L 292.273 75.377 L 284.285 64.407 L 275.779 64.407 L 287.974 80.771 L 275.322 97.529 L 283.797 97.529 Z  M 335.065 78.923 L 335.065 97.529 L 342.474 97.529 L 342.474 79.013 C 342.474 74.013 345.218 70.65 349.821 70.65 C 354.943 70.65 356.955 74.135 356.955 78.832 L 356.955 97.529 L 364.395 97.529 L 364.395 77.074 C 364.395 69.559 360.706 63.65 352.23 63.65 C 347.138 63.65 343.876 65.528 340.644 69.074 C 338.754 65.771 335.431 63.65 330.37 63.65 C 327.717 63.65 323.601 64.619 320.4 68.862 L 320.4 64.407 L 313.144 64.407 L 313.144 97.529 L 320.583 97.529 L 320.583 79.074 C 320.583 74.074 323.327 70.65 327.931 70.65 C 333.053 70.65 335.065 74.226 335.065 78.923 L 335.065 78.923 Z  M 369.839 80.923 C 369.839 89.832 376.607 98.044 386.241 98.044 C 388.894 98.044 394.564 96.741 397.308 92.499 L 397.308 97.529 L 404.656 97.529 L 404.656 64.407 L 397.308 64.407 L 397.308 69.225 C 394.564 65.135 389.351 63.741 386.424 63.741 C 375.997 63.741 369.839 72.559 369.839 80.923 L 369.839 80.923 Z  M 397.339 80.923 C 397.339 86.589 393.375 91.347 387.339 91.347 C 381.333 91.347 377.339 86.62 377.339 80.923 C 377.339 75.165 381.302 70.438 387.339 70.438 C 393.375 70.438 397.339 75.165 397.339 80.923 L 397.339 80.923 Z  M 431.564 71.044 L 431.564 64.407 L 423.088 64.407 L 423.088 54.134 L 415.679 54.134 L 415.679 64.407 L 409.216 64.407 L 409.216 71.044 L 415.679 71.044 L 415.679 87.256 C 415.679 95.317 419.368 97.832 425.923 97.832 C 426.838 97.832 429.216 97.771 431.259 97.165 L 431.259 90.892 C 429.826 91.074 428.911 91.135 428.24 91.135 C 424.521 91.135 423.088 89.711 423.088 86.862 L 423.088 71.044 L 431.564 71.044 Z  M 452.008 98.105 C 461.093 98.105 466.246 92.286 467.74 87.256 L 460.941 85.074 C 459.965 87.62 457.861 91.377 452.16 91.377 C 446.489 91.377 442.282 86.953 442.282 80.771 C 442.282 74.498 446.672 70.407 452.099 70.407 C 457.618 70.407 460.057 74.013 460.819 76.589 L 467.557 74.407 C 466.154 68.801 460.392 63.71 452.13 63.71 C 442.191 63.71 434.66 71.438 434.66 80.892 C 434.66 90.65 442.191 98.105 452.008 98.105 L 452.008 98.105 Z  M 495.562 78.983 L 495.562 97.529 L 503.001 97.529 L 503.001 77.135 C 503.001 69.589 498.976 63.71 490.501 63.71 C 487.879 63.71 483.702 64.559 480.501 68.589 L 480.501 46.983 L 473.062 46.983 L 473.062 97.529 L 480.501 97.529 L 480.501 79.074 C 480.501 74.074 483.489 70.71 488.214 70.71 C 493.336 70.71 495.562 74.256 495.562 78.983 L 495.562 78.983 Z " fill-rule="evenodd" fill="rgb(44,62,80)"/><g transform="matrix(1,0,0,1,135.035,0.702)"><text transform="matrix(1,0,0,1,0,33.134)" style="font-family:&quot;Open Sans&quot;;font-weight:600;font-size:31px;font-style:normal;fill:#2C3E50;stroke:none;">Lyric search powered by</text></g></g></g></g></svg>